<?xml version="1.0" encoding="UTF-8"?>
<svg width="140px" height="133px" viewBox="0 0 140 133" version="1.1" xmlns="http://www.w3.org/2000/svg" xmlns:xlink="http://www.w3.org/1999/xlink">
    <!-- Generator: Sketch 59.1 (86144) - https://sketch.com -->
    <title>FA31B309-0881-490D-83BA-451691413E1F</title>
    <desc>Created with Sketch.</desc>
    <g id="标识备份" stroke="none" stroke-width="1" fill="none" fill-rule="evenodd">
        <g id="开发中" fill-rule="nonzero">
            <g id="编组-2">
                <path d="M8.55486397,18.9728519 L19.4020914,29.7543537 L19.4020914,29.7543538 C21.3542935,31.6486847 24.4817761,31.6112408 26.3875034,29.6707093 C28.2608476,27.7631514 28.2608476,24.7182692 26.3875033,22.8107112 L20.6517027,17.1092111 L20.6517028,17.1092114 C20.1816495,15.7402005 20.9170735,14.2516267 22.2943217,13.7843778 C23.2451364,13.4618049 24.2977481,13.7047578 25.0082809,14.410786 L29.9927394,19.3654371 C39.7943891,12.9962936 51.5584988,9.28553692 64.2078274,9.28553692 C66.7342127,9.28553692 69.2255588,9.4335151 71.6722488,9.72076664 C95.9947001,12.1223655 117.438647,28.6584836 124.491507,53.1061372 L124.491509,53.1061453 C127.664957,64.0619129 127.609035,75.6927891 124.330379,86.6178497 L136.822161,93.500569 L136.822162,93.5005693 C139.5264,94.9908599 140.50322,98.3780956 139.003951,101.066162 C137.504695,103.754228 134.097081,104.725207 131.392844,103.234904 L118.568293,96.1685284 L118.568293,96.1685284 C115.873789,95.7377025 113.338101,97.5597143 112.90469,100.238104 C112.637609,101.888588 113.233322,103.560792 114.4858,104.676383 L120.584136,108.036346 L120.584136,108.036346 C121.840503,108.766325 122.263665,110.370483 121.529293,111.619333 C120.818471,112.828139 119.276928,113.267476 118.029737,112.61669 L111.864843,109.220168 L111.864842,109.22017 C108.571374,113.009339 104.82623,116.386014 100.711996,119.275697 L28.4111466,119.275697 L28.4111426,119.275697 C28.146332,119.087731 27.8830312,118.897675 27.6212665,118.705544 C12.2633956,107.684669 2.2952636,89.9037855 2.2952636,69.8449626 L2.29526349,69.8448683 C2.2827407,58.444339 5.56150312,47.2796842 11.7423076,37.67628 L1.64374006,27.6373613 L1.64374052,27.6373618 C-0.544760663,25.46637 -0.548371879,21.9429108 1.63568047,19.767497 C3.47533302,17.935126 6.34317446,17.6057393 8.55472985,18.9728227 L8.55486397,18.9728519 Z" id="路径" fill="#F2F6FC"></path>
                <path d="M3.59667836,121.418007 L116.406336,121.418007 L116.406336,121.418007 C117.199978,121.418007 117.843351,120.778481 117.843351,119.989585 C117.843351,119.20069 117.199978,118.561164 116.406336,118.561164 L3.5966783,118.561164 L3.59667824,118.561164 C2.80303646,118.561164 2.15966312,119.20069 2.15966312,119.989585 C2.15966312,120.778481 2.80303646,121.418007 3.59667824,121.418007 L3.59667836,121.418007 Z M122.151701,121.418007 L129.696695,121.418007 L129.696694,121.418007 C130.490336,121.418007 131.13371,120.778481 131.13371,119.989585 C131.13371,119.20069 130.490336,118.561164 129.696694,118.561164 L122.151701,118.561164 L122.151701,118.561164 C121.358059,118.561164 120.714686,119.20069 120.714686,119.989585 C120.714686,120.778481 121.358059,121.418007 122.151701,121.418007 L122.151701,121.418007 Z M74.011191,127.131694 L77.6032905,127.131694 L77.6032904,127.131694 C78.3969322,127.131694 79.0403056,126.492168 79.0403056,125.703272 C79.0403056,124.914376 78.3969322,124.27485 77.6032904,124.27485 L74.011191,124.27485 L74.0111909,124.27485 C73.2175491,124.27485 72.5741758,124.914376 72.5741758,125.703272 C72.5741758,126.492168 73.2175491,127.131694 74.0111909,127.131694 L74.011191,127.131694 Z M7.90763212,132.84538 L48.5293564,132.84538 L48.5293563,132.84538 C49.3229981,132.84538 49.9663714,132.205855 49.9663714,131.416959 C49.9663714,130.628063 49.3229981,129.988537 48.5293563,129.988537 L7.90763206,129.988537 L7.907632,129.988537 C7.11399023,129.988537 6.47061688,130.628063 6.47061688,131.416959 C6.47061688,132.205855 7.11399023,132.84538 7.907632,132.84538 L7.90763212,132.84538 Z M58.9220678,132.84538 L121.078935,132.84538 L121.078935,132.84538 C121.872576,132.84538 122.51595,132.205855 122.51595,131.416959 C122.51595,130.628063 121.872576,129.988537 121.078935,129.988537 L58.9220678,129.988537 L58.9220677,129.988537 C58.1284259,129.988537 57.4850526,130.628063 57.4850526,131.416959 C57.4850526,132.205855 58.1284259,132.84538 58.9220677,132.84538 L58.9220678,132.84538 Z M28.7438214,127.131694 L64.6700498,127.131694 L64.6700497,127.131694 C65.4636915,127.131694 66.1070648,126.492168 66.1070648,125.703272 C66.1070648,124.914376 65.4636915,124.27485 64.6700497,124.27485 L28.7446064,124.27485 L28.7446063,124.27485 C27.9509646,124.27485 27.3075912,124.914376 27.3075912,125.703272 C27.3075912,126.492168 27.9509646,127.131694 28.7446063,127.131694 L28.7438214,127.131694 Z M86.226127,127.131694 L117.840486,127.131694 L117.840486,127.131694 C118.634127,127.131694 119.277501,126.492168 119.277501,125.703272 C119.277501,124.914376 118.634127,124.27485 117.840486,124.27485 L86.2261269,124.27485 L86.2261269,124.27485 C85.4324851,124.27485 84.7891118,124.914376 84.7891118,125.703272 C84.7891118,126.492168 85.4324851,127.131694 86.2261269,127.131694 L86.226127,127.131694 Z M41.3187013,6.42876858 L41.3187013,6.42876858 C42.7076978,6.42908344 43.8339521,5.31006993 43.8342662,3.9293785 C43.8345829,2.54868837 42.7088374,1.42916911 41.3198397,1.42885691 C41.3194572,1.42885691 41.3190748,1.42885691 41.3186924,1.42885691 L41.3186924,1.42885691 C39.9296959,1.42917189 38.8039519,2.54869617 38.8042658,3.9293785 C38.8045826,5.30962643 39.9301421,6.42844337 41.3186924,6.42876858 L41.3187013,6.42876858 Z M41.3187013,7.85631879 L41.3187012,7.8563188 C39.1363103,7.88861627 37.3407904,6.15620451 37.3083026,3.98685144 C37.2758108,1.81751138 39.0186448,0.0327288783 41.2010488,0.000435303715 C41.2402678,-0.000145102732 41.2794933,-0.000145101431 41.3187124,0.000435308775 L41.3187126,0.000435308799 C43.5013521,0.000830148797 45.2704027,1.75994741 45.2700103,3.92953458 C45.2696131,6.0985625 43.5007894,7.85680002 41.3187126,7.8572032 L41.3187013,7.85631879 Z" id="形状" fill="#F2F6FC"></path>
                <path d="M113.888665,85.7075304 L113.888665,85.7075304 C115.277661,85.7078453 116.403915,84.5888318 116.40423,83.2081403 C116.404546,81.8274502 115.278801,80.7079309 113.889803,80.7076187 C113.889421,80.7076187 113.889038,80.7076187 113.888656,80.7076187 L113.888656,80.7076187 C112.499659,80.7079337 111.373915,81.827458 111.374229,83.2081403 C111.374546,84.5883883 112.500105,85.7072052 113.888656,85.7075304 L113.888665,85.7075304 Z M113.888665,87.1350806 L113.888665,87.1350806 C111.706274,87.1673781 109.910754,85.4349663 109.878266,83.2656133 C109.845774,81.0962732 111.588608,79.3114907 113.771012,79.2791971 C113.810231,79.2786167 113.849457,79.2786167 113.888676,79.2791971 L113.888676,79.2791971 C116.071315,79.279592 117.840366,81.0387092 117.839974,83.2082964 C117.839576,85.3773243 116.070753,87.1355619 113.888676,87.135965 L113.888665,87.1350806 Z" id="形状" fill="#FFFFFF"></path>
                <path d="M49.9411061,29.9981878 L49.941106,29.9981878 C50.9332796,29.9981878 51.7375941,29.1986832 51.7375941,28.2124429 C51.7375941,27.2262025 50.9332796,26.4266979 49.941106,26.4266979 C49.941106,26.4266979 49.941106,26.4266979 49.941106,26.4266979 L49.9411059,26.4266979 C48.9489323,26.4266979 48.1446178,27.2262038 48.1446178,28.2124429 C48.1446178,29.1986832 48.9489336,29.9981878 49.9411059,29.9981878 L49.9411061,29.9981878 Z M49.9411061,31.4257381 L49.9411059,31.4257381 C48.15553,31.425738 46.7080345,29.9868987 46.7080345,28.2120007 C46.7080345,26.4371026 48.15553,24.9982632 49.9411059,24.9982632 C49.9411059,24.9982632 49.9411059,24.9982632 49.941106,24.9982632 L49.9411061,24.9982632 C51.7269176,24.9982632 53.1746093,26.4372977 53.1746093,28.2124298 C53.1746093,29.987562 51.7269176,31.4265965 49.9411061,31.4265965 L49.9411061,31.4257381 Z M19.0448035,55.7097779 L19.0448035,55.7097779 C20.4337999,55.7100928 21.5600542,54.5910793 21.5603683,53.2103878 C21.5606851,51.8296977 20.4349395,50.7101785 19.0459418,50.7098663 C19.0455594,50.7098663 19.0451769,50.7098663 19.0447945,50.7098663 L19.0447945,50.7098663 C17.6557981,50.7101812 16.530054,51.8297055 16.530368,53.2103878 C16.5306848,54.5906358 17.6562443,55.7094527 19.0447945,55.7097779 L19.0448035,55.7097779 Z M19.0448035,57.1381996 L19.0448036,57.1381996 C16.8621641,57.1385944 15.0924723,55.3801181 15.0920667,53.2105309 C15.0916695,51.0409437 16.8607249,49.2818348 19.0433644,49.2814316 C19.0438438,49.2814316 19.0443231,49.2814316 19.0448025,49.2814316 L19.0448027,49.2814316 C21.2274422,49.2818265 22.9964928,51.0409437 22.9961004,53.2105309 C22.9957032,55.3795588 21.2268796,57.1377964 19.0448027,57.1381996 L19.0448035,57.1381996 Z" id="形状" fill="#E3E7ED"></path>
                <path d="M118.559693,5.71409597 L118.559693,5.71409597 C120.146979,5.71409597 121.433723,4.43504411 121.433723,2.85725263 C121.433723,1.27945855 120.146977,0.000409289446 118.559693,0.000409289446 L118.559693,0.000409289446 C116.972407,0.000409289446 115.685663,1.27946245 115.685663,2.85725263 C115.685663,4.43504672 116.972411,5.71409597 118.559693,5.71409597 L118.559693,5.71409597 Z" id="路径" fill="#FFFFFF"></path>
                <polygon id="路径" fill="#F1F1F1" points="115.190796 12.2120626 112.456007 18.569891 109.902485 12.6307606 102.751559 9.57980463 109.503171 6.69858829 112.456896 0.000409289446 115.594506 7.11814464 121.434522 9.57980463 115.191699 12.2120756"></polygon>
                <path d="M93.600569,39.2894511 L96.4422029,38.8933924 L94.3265279,37.2517135 L93.8291327,34.0014166 L91.8842185,36.4169318 L88.8079079,36.8599949 L91.393839,38.8846837 L91.7826478,41.5900737 L93.6005938,39.2894524 L93.600569,39.2894511 Z M91.6784211,35.0033146 L90.7615688,35.5255901 L91.1162255,35.0842671 L91.6784211,35.0033146 L91.6784211,35.0033146 Z M90.8368784,45.1006298 L90.0522555,39.6533033 L85.2884736,35.9225175 L91.1162294,35.0842658 L94.7556149,30.5631003 L95.661084,36.4752566 L99.9966489,39.839576 L94.3738165,40.6229884 L90.8368797,45.0997519 L90.8368784,45.1006298 Z" id="形状" fill="#E3E7ED"></path>
                <polygon id="路径" fill="#FFFFFF" points="24.382991 88.5147173 23.1692772 92.1358245 21.9993481 88.6444118 17.966772 87.3082538 21.8688733 86.0147524 23.1692798 82.1359859 24.5134763 86.1444469 28.0258935 87.3073798 24.3830015 88.5138355"></polygon>
                <polygon id="路径" fill="#E3E7ED" points="42.4704697 45.07017 41.7769188 47.1392478 41.1078875 45.1441604 38.8039321 44.3807679 41.033452 43.6417484 41.7769175 41.4255612 42.5449013 43.7157388 44.5519912 44.3807692 42.4704658 45.0701726"></polygon>
            </g>
            <path d="M36.4599897,48 L84.5400103,48 C85.3363667,48 86,48.658725 86,49.4491987 L86,93.5508013 C86,94.3412717 85.33637,95 84.5400103,95 L36.4599897,95 C35.6636333,95 35,94.341275 35,93.5508013 L35,49.4491987 C35.0331814,48.6587294 35.66363,48 36.4599897,48 Z" id="路径" fill="#D3D7DD"></path>
            <path d="M37.7245797,57 L83.2754028,57 C83.670638,57 84,57.3278695 84,57.7213114 L84,91.5573728 C84,92.3442588 83.341275,93 82.5508013,93 L38.4491987,93 C37.6587294,93 37,92.3442621 37,91.5573728 L37,57.7213114 C37,57.3278684 37.329363,57 37.7245972,57 L37.7245797,57 Z" id="路径" fill="#E5EAF1"></path>
            <path d="M46.2523749,68.0427113 L65.4335274,68.0427113 C66.1256301,68.0427113 66.6859023,68.642335 66.6859023,69.3085821 C66.6859023,69.9748303 66.0926714,70.5744529 65.4335274,70.5744529 L46.2523749,70.5744529 C45.5602722,70.5744529 45,69.9748292 45,69.3085821 C45,68.6423339 45.5932309,68.0427113 46.2523749,68.0427113 Z M46.2523749,80.4682584 L58.9079852,80.4682584 C59.6000879,80.4682584 60.1603601,81.0678821 60.1603601,81.7341292 C60.1603601,82.4003774 59.5671292,83 58.9079852,83 L46.2523749,83 C45.5602722,83 45,82.4003763 45,81.7341292 C45,81.067881 45.5932309,80.4682584 46.2523749,80.4682584 Z M46.2523749,74.2721534 L71.9260223,74.2721534 C72.618125,74.2721534 73.1783972,74.8717771 73.1783972,75.5380242 C73.1783972,76.2375852 72.5851663,76.803895 71.9260223,76.803895 L46.2523749,76.803895 C45.5602722,76.803895 45,76.2042713 45,75.5380242 C45,74.8384632 45.5932309,74.2721534 46.2523749,74.2721534 Z M100.697806,59.481484 L99.1817741,57.9491153 C98.7862868,57.5493661 98.0941852,57.5493661 97.6987023,57.9491153 C97.303215,58.3488644 97.303215,59.0484243 97.6987023,59.448169 L99.2147339,60.9805378 C98.0941874,61.5135359 96.6770243,61.3136624 95.7542258,60.3476024 C94.8643805,59.4481679 94.6336792,58.0823587 95.0950807,56.9830519 L91.0742992,52.9189416 C89.9537527,53.3853152 88.6354581,53.1854406 87.7456194,52.2526934 C86.7898588,51.3532589 86.6250728,49.9208197 87.1194319,48.7881979 L88.6354636,50.3205667 C89.0309508,50.7203158 89.7230525,50.7203158 90.1185354,50.3205667 C90.5140226,49.9208175 90.5140226,49.2212576 90.1185354,48.8215129 L88.6025037,47.2891442 C89.7230503,46.7561461 91.1402134,46.9560195 92.0630119,47.9220796 C92.9528572,48.821514 93.1835585,50.1873232 92.722157,51.28663 L96.7758983,55.3507404 C97.8964448,54.8843667 99.2147394,55.0842413 100.104578,56.0169885 C101.027381,56.9830486 101.258084,58.3488622 100.697809,59.481484 L100.697806,59.481484 Z" id="形状" fill="#BABEC4"></path>
            <path d="M92.1492895,64.1492889 C92.3483422,63.950237 92.6611385,63.950237 92.8317548,64.1492889 L94.8507105,66.1682462 C95.0497632,66.3672981 95.0497632,66.6800956 94.8507105,66.8507111 C94.6516578,67.049763 94.3388615,67.049763 94.1682452,66.8507111 L92.1492895,64.8317538 C91.9502368,64.6327019 91.9502368,64.3483408 92.1492895,64.149288 L92.1492895,64.1492889 Z" id="路径" fill="#BBBBBB"></path>
            <polygon id="路径" fill="#D3D7DD" points="71 70 90 70 90 98 71 98"></polygon>
            <path d="M65,73.0136963 C65,71.3698568 66.3636513,70 68,70 L71,70 L71,80 L65,80 L65,73.0136963 L65,73.0136963 Z" id="路径" fill="#BABEC4"></path>
            <path d="M65.0340823,80 L71,80 L71,94.1558909 C71,95.707228 69.6363575,97 68,97 C66.3636312,97 65,95.7072173 65,94.1558909 L65,80 L65.034091,80 L65.0340823,80 Z" id="路径" fill="#EBEBF0"></path>
            <path d="M96,76.9863037 C96,78.6301432 94.6363487,80 93,80 L90,80 L90,70 L96,70 L96,76.9863037 L96,76.9863037 Z" id="路径" fill="#F2F0E2"></path>
            <path d="M95.9659177,81 L90,81 L90,66.844106 C90,65.2927706 91.3636425,64 93,64 C94.6363688,64 96,65.2927813 96,66.844106 L96,80.9676806 C96,81 96,81 95.9659091,81 L95.9659177,81 Z" id="路径" fill="#BABEC4"></path>
            <path d="M95.9672703,70 L90.2381077,70 L90.2381077,55.8441091 C90.2381077,54.292772 91.5476346,53 93.1190538,53 C94.690484,53 96,54.2927827 96,55.8441091 L96,70 L95.967262,70 L95.9672703,70 Z M84.5089233,68.8041832 L84.5089233,70 L78.7797607,70 L78.7797607,68.8041832 C75.9970256,67.996197 74,65.4752766 74,62.5018902 C74,58.849796 76.979168,55.9087209 80.6785644,55.9087209 L82.5773681,55.9087209 C86.2767646,55.9087209 89.2559326,58.849796 89.2559326,62.5018902 C89.2886706,65.4752766 87.258907,67.996198 84.5089125,68.8041832 L84.5089233,68.8041832 Z" id="形状" fill="#EBEBF0"></path>
            <path d="M73,61 C73,56.0190804 76.7957982,52 81.5,52 C86.2042018,52 90,56.0190804 90,61 L73,61 L73,61 Z" id="路径" fill="#BABEC4"></path>
            <path d="M80.5042744,51 L81.4957256,51 C82.3162373,51 83,51.684931 83,52.5068521 L83,59.4931479 C83,60.3150644 82.3162407,61 81.4957256,61 L80.5042744,61 C79.6837627,61 79,60.315069 79,59.4931479 L79,52.5068521 C79,51.6849356 79.649571,51 80.5042744,51 Z" id="路径" fill="#D7D7E1"></path>
            <path d="M72.7169814,59 L90.2830186,59 C90.6740998,59 91,59.3448283 91,59.7586207 L91,60.2413793 C91,60.6551728 90.6740998,61 90.2830186,61 L72.7169814,61 C72.3259002,61 72,60.6551717 72,60.2413793 L72,59.7586207 C72,59.3448272 72.3259002,59 72.7169814,59 Z" id="路径" fill="#B9B9C8"></path>
            <path d="M37,52.9958414 C37,54.0935531 37.8999996,54.9916828 39,54.9916828 C40.1000012,54.9916828 41,54.0935553 41,52.9958414 C41,51.8981297 40.1000034,51 39,51 C37.9000018,51 37,51.8648642 37,52.9958414 Z M42.4999963,52.9958414 C42.4999963,53.7276492 42.8999988,54.3596616 43.4999963,54.7255721 C44.1333312,55.091476 44.899997,55.091476 45.4999963,54.7255721 C46.1333327,54.3596682 46.4999963,53.6943881 46.4999963,52.9958414 C46.4999963,51.8981297 45.5999997,51 44.4999963,51 C43.3999981,51 42.4999963,51.8648642 42.4999963,52.9958414 L42.4999963,52.9958414 Z M47.999997,52.9958414 C47.999997,54.0935531 48.8999966,54.9916828 49.999997,54.9916828 C51.0999982,54.9916828 51.999997,54.0935553 51.999997,52.9958414 C51.999997,51.8981297 51.1000004,51 49.999997,51 C48.8999988,51 47.999997,51.8648642 47.999997,52.9958414 Z" id="形状" fill="#BABEC4"></path>
        </g>
    </g>
</svg>
