<?xml version="1.0" standalone="no"?><!DOCTYPE svg PUBLIC "-//W3C//DTD SVG 1.1//EN" "http://www.w3.org/Graphics/SVG/1.1/DTD/svg11.dtd"><svg t="1576918824345" class="icon" viewBox="0 0 1024 1024" version="1.1" xmlns="http://www.w3.org/2000/svg" p-id="5600" xmlns:xlink="http://www.w3.org/1999/xlink" width="200" height="200"><defs><style type="text/css"></style></defs><path d="M510.086417 65.290005c-155.267273 0-291.12959 125.205607-291.12959 279.641955 0 143.197376 287.874453 486.078631 287.874453 486.078631s298.210869-338.094228 298.210869-486.078631c0-154.435325-139.696646-279.641955-294.955732-279.641955z m4.909824 512.889253c-125.815497-0.150426-227.972155-100.063997-227.972155-223.366253 0-123.279744 102.157681-223.342718 227.972155-223.342718 125.977179 0 227.974201 99.901291 227.974201 223.342718s-102.148471 223.366254-227.974201 223.366253zM608.546893 839.373049c0.835018 2.492774 1.284249 5.108345 1.284249 7.66047 0 26.422789-43.781132 47.864124-97.707322 47.864124-53.921074 0-97.698113-21.441335-97.698113-47.864124 0-2.615571 0.445138-5.166673 1.274017-7.66047-59.157331 10.977006-98.976222 31.717376-98.976223 55.524594 0 35.287691 87.48961 63.812351 195.400319 63.812352 107.919918 0 195.409528-28.52466 195.409528-63.812352-0.063445-23.807219-39.887452-44.547589-98.986455-55.524594z" fill="#0084FF" p-id="5601"></path><path d="M469.421252 443.536722c15.537881 5.627161 35.102473 7.502881 60.026119 7.502881 12.861936 0.26913 94.336552 0.26913 110.412692-0.538259-2.945075 4.827959-6.696516 13.93743-8.04114 19.834744h-102.101399c-56.543807 0-88.440262-9.110495-107.998713-45.288462-3.221368 21.165042-8.04114 39.392172-16.082281 54.398957-3.482311-2.413979-12.06171-7.502881-16.613376-9.647731 15.545044-26.799366 18.489096-69.405743 19.296485-116.847241l18.758226 1.344624c-0.26913 12.861936-0.807389 25.454742-1.606591 37.247322 5.89629 19.296485 14.199397 32.695656 25.454742 41.806152v-101.302197h-56.005548V314.096674h51.185776v-33.765011h-44.48926v-17.689894h44.48926v-29.751605h19.027355v29.751605h43.143613v17.689894h-43.143613v33.765011h50.116421v17.950838h-45.826721v39.668465h43.143613v17.682731h-43.143613v54.138014z m130.50838-180.355671h-76.378552v-17.959024h95.675037v91.116208h-73.695443v58.419527c0 8.04114 2.14485 9.386788 14.468527 9.386788h41.267892c11.262508 0 13.138228-4.827959 14.20656-37.254485 4.2897 3.482311 12.323677 6.703679 17.958 7.77201-2.683109 38.054711-8.31027 47.702442-30.55183 47.702442h-44.758389c-24.385387 0-31.889291-5.627161-31.889291-27.606755v-76.109422h73.695442v-55.467289z" fill="#0084FF" p-id="5602"></path></svg>